<?xml version="1.0" encoding="utf-8"?>
<!-- Generator: Adobe Illustrator 22.1.0, SVG Export Plug-In . SVG Version: 6.00 Build 0)  -->
<svg version="1.1" id="robot" xmlns="http://www.w3.org/2000/svg" xmlns:xlink="http://www.w3.org/1999/xlink" x="0px" y="0px"
	 viewBox="0 0 1366 768" style="enable-background:new 0 0 1366 768;" xml:space="preserve">
<style type="text/css">
	.st0{fill:none;}
	.st1{fill:#282828;}
	.st2{fill:none;stroke:#282828;stroke-width:4;stroke-miterlimit:10;}
	.st3{fill:#FFFFFF;}
</style>
<g>
	<polygon class="st0" points="543.5,249.5 558.5,380.5 737.5,363.5 732.5,232.5 	"/>
	<polygon class="st1" points="757.5,247.5 761.5,366.5 737.5,366.5 732.5,232.5 	"/>
	<path class="st1" d="M747,381.6c4.1,2.6,18.7-14.1,15-15.6c-2.1-0.8-23.9,0-23.9,0S745.3,380.5,747,381.6z"/>
	<polygon class="st1" points="579.4,402.5 746,380.6 737.1,363.6 558.5,380.6 	"/>
	<polyline class="st2" points="667,238.4 652.5,222.5 672.5,212.5 667.5,178.5 	"/>
	<polyline class="st2" points="594.1,244.9 602,225 582,218 570,178 	"/>
	<circle class="st2" cx="570" cy="169" r="9"/>
	<circle class="st2" cx="667" cy="172" r="9"/>
	<path class="st1" d="M561,259.9c9,37.4,15,75.1,14.9,103.1c0,0,150.1-6.5,145.1-11.8c-5-5.2-2.8-101.2-2.8-101.2L561,259.9z"/>
	<path class="st3" d="M679.3,340.2L679.3,340.2c-3.8,0.4-7.3-2.3-7.7-6.2l-7.3-63.9c-0.4-3.8,2.3-7.3,6.2-7.7l0,0
		c3.8-0.4,7.3,2.3,7.7,6.2l7.3,63.9C685.9,336.3,683.1,339.8,679.3,340.2z"/>
	<path class="st3" d="M612.4,345L612.4,345c-3.8,0.4-7.3-2.3-7.7-6.2l-7.4-64.7c-0.4-3.8,2.3-7.3,6.2-7.7l0,0
		c3.8-0.4,7.3,2.3,7.7,6.2l7.4,64.7C618.9,341,616.2,344.5,612.4,345z"/>
	<path class="st0" d="M655,392c0.8,1.4,3.9,6.9,2,13c-0.5,1.6-1.3,3-2,4"/>
	<path class="st0" d="M672,392c0.4,0.9,0.7,1.9,1,3c1.5,5.8,0.1,11-1,14"/>
	<path class="st0" d="M708.2,422.1c0.9-1.6,0-3.6-1.8-3.9c-13.1-2.6-23.9,0.3-27.4,6.8c-1.6,3-2.1,7.5,0,11c2.9,4.7,10.2,6.8,18,4.3
		c0.6-0.2,1.2-0.6,1.5-1.2L708.2,422.1z"/>
	<path class="st1" d="M678.7,519.6l-55.9-5.9c-1.5-0.2-2.6-1.6-2.4-3.2c4.7-13.9,9.5-32.5,11.4-54.7c1.5-18,0.8-33.9-0.7-46.6
		c0-0.2,0.1-1.2,1-1.9c0.6-0.5,1.3-0.7,2-0.6l55.9,5.9c1.5,0.2,2.6,1.6,2.4,3.2c-3.8,28.9-7,58.5-9.7,88.6
		c-0.4,4.2-0.7,8.5-1.1,12.7C681.7,517.3,705.8,313.5,678.7,519.6z"/>
	<path class="st0" d="M625.7,444.5l-7.6-22.2c-0.4-1.2,0.4-2.4,1.8-2.6l10.6-1.7L625.7,444.5z"/>
	<path class="st1" d="M617.7,424c-17.7,20.1-39,40.4-64.7,59c-3.5,2.5-6.9,4.9-10.4,7.3c-0.3,0.3-0.4,0.8-0.1,1.2
		c0.2,0.3,0.7,0.5,1.2,0.2c14.4-4.1,34.2-11.8,54.3-26.7c9.5-7.1,17.3-14.4,23.5-21.1c0.3-0.2,1.2-0.8,1.7-2.1
		c0.3-0.9,0.3-1.8,0-2.7L618,424C617.9,424,617.8,424,617.7,424z"/>
	<circle class="st0" cx="531.8" cy="484.8" r="5.8"/>
	<circle class="st0" cx="525.8" cy="500.8" r="5.8"/>
	<circle class="st0" cx="542.8" cy="502.8" r="5.8"/>
	<path class="st1" d="M701,430.2c0.1-0.1,0.3-0.2,0.4,0c6.8,11.1,15.6,28.4,20.1,51.2c2.9,14.6,3.2,27.5,2.6,37.7
		c0,0.2-0.3,0.3-0.4,0c-3.7-13.6-7.9-27.6-12.5-42c-4.4-13.7-9-26.9-13.6-39.5c0-0.1,0-0.1,0-0.2C698.7,434.9,699.8,432.6,701,430.2
		z"/>
	<circle class="st0" cx="735.2" cy="520" r="5.8"/>
	<circle class="st0" cx="715.9" cy="525.1" r="5.8"/>
	<circle class="st0" cx="728.2" cy="532.1" r="5.8"/>
	<ellipse class="st0" cx="624.5" cy="522" rx="13.5" ry="9"/>
	<ellipse class="st0" cx="669" cy="527.5" rx="13.5" ry="9"/>
	<path class="st1" d="M620.3,531c1,9.9,1.5,21.1,1.2,33.5c-0.3,12.2-1.5,23.3-3,33c2.7,0,5.3,0,8,0c2.6-8.3,5.1-19.1,6-32
		c1-14.2-0.3-26.4-2-35.4C627.1,530.4,623.7,530.7,620.3,531z"/>
	<path class="st1" d="M664,536.5c0.5,8.3,0.6,18.1-0.5,29c-1.2,12.4-3.5,23.1-6,32c4.7,0,9.3,0,14,0c1.9-9.1,3.4-19.9,4-32
		c0.5-10.8,0.1-20.5-0.7-29C671.2,536.5,667.6,536.5,664,536.5z"/>
	<path class="st1" d="M718.5,467.5c-0.1,0-0.1-0.1-0.1-0.2l2.2,10.8c0.1,0.5,0.2,0.9,0.2,1.4c0.5,4.4,1.7,6.4,2.7,6
		c5-2,15-15.4,20-26c1.7-3.5,4.9-10.5,7-19c6.3-26-2.3-50.5-6-59.7l-17.1,2.2c-1.1,0.6-1.6,1-1.6,1.1c0,0.1,0.6-0.1,1.7-0.6
		c11.4,15.1,12.2,27.4,12,33c-0.2,8.6-3,12.6-17,44C721.7,462.3,719.3,467.8,718.5,467.5z"/>
	<path class="st0" d="M786.5,447.5"/>
	<path class="st1" d="M711.5,478.5c-4.5,3.9-13,12.4-18,26c-5.9,16-3.8,30-2.3,36.6c0.2,1.1,0.4,2.1,0.5,3.2
		c1.9,16.4,10.8,30.2,24.8,36.2c8,3.4,15.7,3.3,20.7,2.6c2.7-0.4,5.3-0.6,8-0.7c9.8-0.2,19.6-0.4,29.4-0.7c7.4-0.2,14.8,1,21.8,3.7
		c0,0,0.1,0,0.1,0c9.6,3.7,17.7,8.2,24.4,12.6c2,1.3,4.7,0.8,6.2-1.1l4.8-6.4c0.8-1.1-1.2-3.4-2.4-4.1c-17.7-10.6-31.4-14.1-42-16
		c-33-5.9-57,4.3-73-11c-4.6-4.4-7.5-11-8.5-13.8c-0.1-0.1-0.2-0.6-0.5-1.2c-1-2.8-2.5-7.6-4.3-16.2c-2-9.8,1.5-20,9.4-26.1
		c0.3-0.2,0.6-0.5,1-0.7c1.6-1.1,3.2-2,4.7-2.7C714.6,492.1,713.1,485.3,711.5,478.5z"/>
</g>
</svg>
