<?xml version="1.0" encoding="utf-8"?>
<!-- Generator: Adobe Illustrator 22.1.0, SVG Export Plug-In . SVG Version: 6.00 Build 0)  -->
<svg version="1.1" id="robot" xmlns="http://www.w3.org/2000/svg" xmlns:xlink="http://www.w3.org/1999/xlink" x="0px" y="0px"
	 viewBox="0 0 1366 768" style="enable-background:new 0 0 1366 768;" xml:space="preserve">
<style type="text/css">
	.st0{fill:none;stroke:#000000;stroke-width:4;stroke-miterlimit:10;}
	.st1{fill:#282828;stroke:#000000;stroke-width:4;stroke-linejoin:bevel;stroke-miterlimit:10;}
	.st2{fill:none;stroke:#000000;stroke-width:4;stroke-linejoin:bevel;stroke-miterlimit:10;}
	.st3{fill:#FFFFFF;stroke:#000000;stroke-width:4;stroke-miterlimit:10;}
</style>
<g>
	<polygon class="st0" points="824.4,231.2 808.4,362.3 617.2,345.4 622.5,214.4 	"/>
	<polygon class="st1" points="595.8,229.4 591.5,348.4 617.2,348.4 622.5,214.4 	"/>
	<path class="st1" d="M607,363.5c-4.4,2.6-20-14-16-15.5c2.2-0.8,25.6,0,25.6,0S608.8,362.4,607,363.5z"/>
	<polygon class="st1" points="786,384.3 608.1,362.5 617.6,345.5 808.4,362.3 	"/>
	<polyline class="st2" points="692.4,220.2 708,204.3 686.6,194.4 691.9,160.4 	"/>
	<polyline class="st0" points="770.4,226.7 761.9,206.8 783.3,199.8 796.1,159.8 	"/>
	<ellipse transform="matrix(1 -6.573648e-03 6.573648e-03 1 -0.9739 5.2364)" class="st0" cx="796.1" cy="150.8" rx="9.6" ry="9"/>
	<ellipse transform="matrix(1 -6.573648e-03 6.573648e-03 1 -0.9964 4.5554)" class="st0" cx="692.5" cy="153.9" rx="9.6" ry="9"/>
	<path class="st1" d="M805.7,241.7c-9.7,37.4-16,75.1-15.9,103.1c0,0-160.3-6.4-155-11.6c5.3-5.3,3-101.3,3-101.3L805.7,241.7z"/>
	<path class="st3" d="M679.4,322.1L679.4,322.1c4.1,0.4,7.8-2.3,8.3-6.2l7.8-63.9c0.5-3.8-2.5-7.3-6.6-7.7l0,0
		c-4.1-0.4-7.8,2.3-8.3,6.2l-7.8,63.9C672.3,318.1,675.3,321.6,679.4,322.1z"/>
	<path class="st3" d="M750.8,326.8L750.8,326.8c4.1,0.4,7.8-2.3,8.3-6.2l7.9-64.7c0.5-3.8-2.5-7.3-6.6-7.7l0,0
		c-4.1-0.4-7.8,2.3-8.3,6.2l-7.9,64.7C743.8,322.9,746.8,326.3,750.8,326.8z"/>
	<path class="st0" d="M705.3,373.8c-0.9,1.4-4.2,6.9-2.1,13c0.5,1.6,1.3,3,2.1,4"/>
	<path class="st0" d="M687.1,373.9c-0.4,0.9-0.8,1.9-1.1,3c-1.6,5.8-0.1,11,1.1,14"/>
	<path class="st0" d="M648.4,404c-1-1.6,0-3.6,1.9-3.9c14-2.6,25.5,0.2,29.3,6.8c1.7,3,2.3,7.5,0,11c-3.1,4.7-10.9,6.8-19.3,4.3
		c-0.7-0.2-1.2-0.6-1.6-1.2L648.4,404z"/>
	<path class="st1" d="M680,501.5l59.7-6c1.6-0.2,2.8-1.6,2.6-3.2c-5-13.9-10.1-32.5-12.2-54.7c-1.7-18-0.8-33.9,0.7-46.6
		c0-0.2-0.2-1.2-1.1-1.9c-0.6-0.5-1.4-0.7-2.2-0.6l-59.7,6c-1.6,0.2-2.8,1.6-2.6,3.2c4,28.9,7.5,58.5,10.3,88.6
		c0.4,4.2,0.8,8.5,1.1,12.7C676.8,499.1,651.1,295.4,680,501.5z"/>
	<path class="st0" d="M736.6,426.3l8.1-22.2c0.4-1.2-0.5-2.4-1.9-2.6l-11.4-1.7L736.6,426.3z"/>
	<path class="st1" d="M745.2,405.8c18.9,20.1,41.7,40.4,69.1,59c3.7,2.5,7.4,4.9,11.1,7.3c0.4,0.3,0.4,0.8,0.1,1.2
		c-0.3,0.3-0.7,0.5-1.2,0.2c-15.4-4.1-36.6-11.8-58-26.6c-10.2-7-18.4-14.3-25.1-21.1c-0.3-0.2-1.3-0.8-1.8-2.1
		c-0.3-0.9-0.4-1.8,0-2.7l5.5-15.1C745,405.8,745,405.8,745.2,405.8z"/>
	
		<ellipse transform="matrix(1 -6.573648e-03 6.573648e-03 1 -3.0485 5.5118)" class="st2" cx="836.9" cy="466.5" rx="6.1" ry="5.7"/>
	
		<ellipse transform="matrix(1 -6.573648e-03 6.573648e-03 1 -3.1535 5.5543)" class="st2" cx="843.3" cy="482.5" rx="6.1" ry="5.7"/>
	<ellipse transform="matrix(1 -6.573648e-03 6.573648e-03 1 -3.1671 5.435)" class="st2" cx="825.2" cy="484.5" rx="6.1" ry="5.7"/>
	<path class="st1" d="M656.2,412.1c-0.1-0.1-0.3-0.2-0.4,0c-7.3,11.1-16.7,28.5-21.5,51.2c-3.1,14.6-3.4,27.5-2.8,37.7
		c0,0.2,0.4,0.3,0.4,0c4-13.6,8.4-27.6,13.4-42c4.7-13.7,9.6-26.9,14.6-39.5c0-0.1,0-0.1,0-0.2C658.6,416.8,657.4,414.4,656.2,412.1
		z"/>
	
		<ellipse transform="matrix(1 -6.573648e-03 6.573648e-03 1 -3.2858 4.0841)" class="st2" cx="619.6" cy="501.9" rx="6.1" ry="5.7"/>
	<ellipse transform="matrix(1 -6.573648e-03 6.573648e-03 1 -3.3188 4.2197)" class="st2" cx="640.2" cy="507" rx="6.1" ry="5.7"/>
	<ellipse transform="matrix(1 -6.573648e-03 6.573648e-03 1 -3.3654 4.1337)" class="st2" cx="627.1" cy="514" rx="6.1" ry="5.7"/>
	<ellipse transform="matrix(1 -1.329843e-03 1.329843e-03 1 -0.6693 0.9817)" class="st2" cx="737.9" cy="503.8" rx="14.4" ry="9"/>
	<ellipse transform="matrix(1 -1.329843e-03 1.329843e-03 1 -0.6768 0.9185)" class="st2" cx="690.3" cy="509.4" rx="14.4" ry="9"/>
	<path class="st1" d="M742.3,512.8c-1,9.9-1.6,21.1-1.3,33.5c0.4,12.2,1.6,23.3,3.2,33c-2.8,0-5.7,0-8.5,0c-2.7-8.3-5.4-19.1-6.4-32
		c-1.1-14.2,0.3-26.4,2.1-35.4C735.1,512.2,738.7,512.5,742.3,512.8z"/>
	<path class="st1" d="M695.7,518.4c-0.6,8.3-0.6,18.1,0.5,29c1.3,12.4,3.7,23.1,6.4,32c-5,0-10,0-15,0c-2-9.1-3.7-19.9-4.3-32
		c-0.5-10.8-0.1-20.5,0.7-29C688,518.4,691.8,518.4,695.7,518.4z"/>
	<path class="st1" d="M637.5,449.4c0.1,0,0.1-0.1,0.2-0.2l-2.4,10.8c-0.1,0.5-0.2,0.9-0.2,1.4c-0.5,4.4-1.8,6.4-2.9,6
		c-5.3-2-16-15.4-21.4-26c-1.8-3.5-5.3-10.5-7.5-19c-6.7-26,2.5-50.5,6.4-59.7l18.2,2.2c1.2,0.6,1.7,1,1.7,1.1
		c0,0.1-0.6-0.1-1.8-0.6c-12.1,15.1-13,27.4-12.8,33c0.3,8.6,3.2,12.6,18.2,44C634,444.2,636.6,449.7,637.5,449.4z"/>
	<path class="st2" d="M564.8,429.5"/>
	<path class="st1" d="M644.9,460.4c4.8,3.9,13.8,12.4,19.2,26c6.3,16,4.1,30,2.5,36.6c-0.3,1.1-0.4,2.1-0.5,3.2
		c-2,16.4-11.6,30.2-26.5,36.2c-8.6,3.4-16.7,3.3-22.1,2.6c-2.8-0.4-5.7-0.6-8.6-0.7c-10.5-0.2-20.9-0.4-31.4-0.6
		c-7.9-0.2-15.9,1.1-23.3,3.7c0,0-0.1,0-0.1,0c-10.2,3.7-18.9,8.2-26.1,12.6c-2.2,1.3-5.1,0.8-6.6-1.1l-5.1-6.4
		c-0.9-1.1,1.3-3.4,2.6-4.1c18.9-10.6,33.5-14.1,44.9-16c35.3-5.9,60.9,4.2,78-11.1c4.9-4.4,8-11.1,9.1-13.8
		c0.1-0.1,0.2-0.6,0.5-1.2c1.1-2.8,2.7-7.6,4.6-16.2c2.2-9.8-1.5-20-10-26.1c-0.3-0.2-0.7-0.5-1-0.7c-1.7-1.1-3.4-2-5-2.7
		C641.6,474,643.3,467.2,644.9,460.4z"/>
</g>
</svg>
